<?xml version="1.0" encoding="UTF-8"?><svg id="Square_Logo" xmlns="http://www.w3.org/2000/svg" viewBox="0 0 500 500"><defs><style>.cls-1{fill:#fff;}.cls-2{fill:#e20000;}</style></defs><rect class="cls-1" x="-.6" y="0" width="500" height="500"/><path class="cls-2" d="M499.4,500H-.6V0H499.4V500Zm-89.8-82.68c-6.41,16.33-14.73,27.86-21.14,31.7-5.12,2.89-11.85,4.17-39.06,4.17-25.3,0-31.38-3.85-34.91-7.37-5.76-6.08-6.72-14.41-6.72-34.58v-111.43c0-33.62,.64-38.75,19.53-40.35l7.69-.64c1.92-1.28,1.28-7.04-.64-8-16.01,.64-26.9,.96-39.39,.96s-23.35-.31-40.79-.93l143.74-119-1.34-1.62-142.26,117.78c4.35-10.37,11.07-31.45,13.09-41.56-1.28-2.88-5.76-3.85-8-2.24-8.33,16.65-16.97,27.85-22.74,31.06-7.04,3.52-16.33,4.8-40.98,4.8-28.18,0-34.9-3.52-38.75-7.37-5.12-5.44-6.08-16.33-6.08-33.3v-45.15c0-8.32,.96-8.64,10.57-8.64h18.57c12.49,0,20.17,.32,24.65,1.6,6.41,1.6,8.65,6.4,9.93,12.17l2.88,12.48c1.6,1.93,7.05,1.93,8.33-.32,0-7.04-1.28-19.21-1.28-30.74,0-12.16,1.28-24.65,1.28-32.34-1.28-2.24-6.73-2.24-8.33-.32l-2.56,13.13c-1.6,8.01-3.84,9.93-7.68,11.21-3.85,1.28-13.77,1.92-27.22,1.92h-18.57c-9.61,0-10.57,0-10.57-8.97V61.39c0-12.16,0-12.8,9.61-12.8h23.05c14.09,0,24.34,.32,31.06,1.92,16.65,4.16,19.53,15.37,24.34,30.42,1.6,1.92,6.72,1.28,8-.64-1.28-14.09-3.2-37.15-5.12-42.59-3.85,.96-22.74,.96-43.23,.96h-60.2c-13.13,0-24.01-.32-37.78-.96-1.92,.96-2.56,6.72-.64,8l5.12,.64c18.89,2.25,19.53,7.05,19.53,40.35v115.27c0,33.63-1.6,38.43-19.85,40.03l-10.57,.96c-1.92,1.92-1.28,7.04,.64,8.01,18.9-.64,29.78-.97,43.55-.97h28.82c27.78,0,55.55,.31,83.62,.92l-108.75,90.04,1.34,1.61,108.64-89.94c-.78,2.1-.71,5.29,.66,6.2l8.01,.64c20.17,1.6,20.81,6.73,20.81,40.35v115.27c0,33.62-.64,38.11-19.21,40.03l-9.61,.96c-1.92,1.92-1.28,7.04,.65,8,17.93-.64,28.17-.96,41.62-.96h29.46c32.98,0,63.4,.32,79.73,.96,4.49-8.64,13.45-41.3,13.45-44.83,0-2.24-6.08-3.52-8-1.92Z"/></svg>